<?xml version="1.0" standalone="no"?>
<!DOCTYPE svg PUBLIC "-//W3C//DTD SVG 20010904//EN"
 "http://www.w3.org/TR/2001/REC-SVG-20010904/DTD/svg10.dtd">
<svg version="1.0" xmlns="http://www.w3.org/2000/svg"
 width="100.000000pt" height="100.000000pt" viewBox="0 0 500.000000 500.000000"
 preserveAspectRatio="xMidYMid meet">
<metadata>
Created by potrace 1.16, written by Peter Selinger 2001-2019
</metadata>
<g transform="translate(0.000000,500.000000) scale(0.100000,-0.100000)"
fill="#000000" stroke="none">
<path d="M2532 3680 c-73 -20 -135 -39 -137 -42 -3 -2 -29 -106 -58 -231 -29
-124 -55 -229 -58 -232 -4 -3 -93 94 -200 215 -145 166 -198 220 -212 216 -9
-2 -177 -92 -371 -200 l-354 -196 -317 -397 c-175 -218 -320 -404 -322 -414
-3 -11 1 -21 10 -24 8 -4 195 95 452 240 241 136 441 243 445 238 4 -4 19 -89
34 -188 15 -99 31 -184 36 -189 5 -5 15 -6 22 -3 7 3 93 69 191 147 l179 141
141 -96 c78 -54 183 -125 233 -158 88 -59 114 -90 114 -137 0 -7 -105 -187
-234 -399 -128 -212 -238 -396 -244 -407 -23 -44 2 -45 199 -9 101 19 191 35
200 35 10 0 41 -52 89 -150 53 -110 78 -150 91 -150 12 0 31 24 56 70 21 38
40 70 43 70 3 0 23 -31 44 -70 24 -45 44 -70 54 -70 12 0 40 44 92 150 47 95
80 150 90 150 8 0 98 -16 199 -35 197 -36 222 -35 199 9 -6 11 -116 195 -244
407 -129 212 -234 392 -234 399 0 47 26 78 114 137 50 33 155 104 233 157
l141 97 179 -141 c98 -78 184 -144 191 -147 7 -3 17 -2 23 4 5 5 21 90 35 188
15 99 30 184 34 188 4 5 200 -101 436 -234 235 -133 439 -245 453 -247 21 -4
23 -2 19 19 -2 14 -147 203 -322 421 l-317 397 -360 200 c-197 111 -365 201
-373 201 -8 0 -101 -99 -207 -220 -149 -170 -196 -217 -205 -207 -6 6 -28 61
-48 120 -48 143 -45 151 62 142 42 -3 91 -8 107 -10 36 -5 58 6 53 28 -5 24
-298 257 -322 256 -12 -1 -81 -18 -154 -39z m258 -102 c0 -5 -22 -42 -50 -82
l-49 -74 39 -116 39 -116 -205 0 c-162 0 -204 3 -198 13 11 17 271 374 306
419 l30 38 44 -36 c24 -20 44 -41 44 -46z m-172 64 c-4 -11 -253 -351 -255
-349 -1 1 15 70 34 154 l36 151 86 25 c98 29 104 30 99 19z m-858 -179 c-16
-27 -101 -158 -188 -292 l-159 -245 -384 -217 c-211 -119 -386 -215 -387 -213
-2 1 117 153 265 337 l268 334 305 171 c168 94 306 172 307 172 2 0 -11 -21
-27 -47z m321 -153 c79 -91 150 -172 157 -182 11 -14 6 -31 -34 -111 l-47 -95
71 -188 c40 -103 70 -189 68 -192 -3 -2 -93 56 -200 129 l-196 133 0 355 c0
346 1 355 18 336 10 -11 84 -94 163 -185z m1139 -152 l0 -353 -196 -133 c-107
-74 -197 -132 -199 -130 -2 2 27 86 65 186 39 100 70 186 70 192 0 6 -20 51
-45 101 -45 89 -46 90 -27 114 27 34 326 375 329 375 2 0 3 -159 3 -352z m489
143 l234 -130 269 -336 c148 -185 268 -338 266 -340 -2 -1 -176 95 -387 214
l-384 217 -159 245 c-87 134 -172 266 -189 292 l-30 49 73 -40 c40 -23 178
-99 307 -171z m-1860 -148 l0 -348 -167 -131 c-92 -72 -168 -131 -169 -130 -1
0 -13 81 -28 178 l-27 178 193 299 c107 165 195 301 197 301 1 0 2 -156 1
-347z m1685 -55 l128 -197 -26 -172 c-15 -95 -28 -174 -30 -177 -2 -2 -79 54
-170 125 l-165 128 0 349 -1 350 68 -105 c37 -57 125 -193 196 -301z m-696
-43 c23 -47 39 -85 35 -85 -3 0 -75 25 -158 55 -84 30 -157 55 -161 55 -5 0
-74 -25 -154 -55 -80 -30 -148 -55 -152 -55 -5 0 11 38 34 85 l42 85 236 0
236 0 42 -85z m-113 -88 c119 -45 169 -68 167 -78 -5 -28 -327 -869 -332 -869
-6 0 -335 857 -335 874 0 8 298 132 325 135 3 1 82 -28 175 -62z m-261 -854
l66 -173 0 -227 -1 -228 -34 -59 -34 -60 -66 135 c-36 74 -69 137 -73 141 -4
4 -88 -8 -187 -26 -99 -19 -181 -33 -181 -33 -5 7 432 714 438 709 3 -4 36
-85 72 -179z m494 -183 c115 -190 209 -346 208 -347 0 0 -82 14 -181 33 -99
19 -181 34 -182 34 -2 0 -35 -64 -74 -142 l-71 -141 -34 62 -34 61 0 224 0
224 66 173 c76 199 74 196 85 178 4 -8 102 -169 217 -359z"/>
</g>
</svg>
